<svg width="25" height="24" viewBox="0 0 25 24" fill="none" xmlns="http://www.w3.org/2000/svg"><path d="M22.85 5.07a8.84 8.84 0 0 1-2.535.695 4.426 4.426 0 0 0 1.94-2.443 8.812 8.812 0 0 1-2.802 1.071A4.415 4.415 0 0 0 11.93 8.42a12.536 12.536 0 0 1-9.1-4.613 4.412 4.412 0 0 0-.596 2.22c0 1.531.78 2.883 1.963 3.675a4.404 4.404 0 0 1-2-.553v.057a4.417 4.417 0 0 0 3.542 4.329 4.444 4.444 0 0 1-1.994.075 4.417 4.417 0 0 0 4.124 3.065 8.858 8.858 0 0 1-5.483 1.89c-.356 0-.708-.02-1.054-.061A12.485 12.485 0 0 0 8.1 20.487c8.121 0 12.561-6.726 12.561-12.56 0-.189-.005-.38-.013-.57a8.976 8.976 0 0 0 2.201-2.284l.002-.002Z" fill="#fff"/></svg>