<svg width="25" height="24" viewBox="0 0 25 24" fill="none" xmlns="http://www.w3.org/2000/svg"><path d="M20.037 4.753a.427.427 0 0 0-.178-.152 17.917 17.917 0 0 0-4.123-1.32.418.418 0 0 0-.451.219c-.102.199-.207.415-.3.621a.455.455 0 0 1-.473.265 16.642 16.642 0 0 0-4.355-.001.457.457 0 0 1-.475-.264 13.822 13.822 0 0 0-.305-.623.418.418 0 0 0-.45-.217 17.857 17.857 0 0 0-4.128 1.323.428.428 0 0 0-.178.155c-2.773 4.237-3.556 8.373-3.211 12.45.01.123.073.235.172.308a18.103 18.103 0 0 0 5.114 2.642.42.42 0 0 0 .478-.16c.285-.41.549-.838.79-1.281a.438.438 0 0 0-.225-.607 11.75 11.75 0 0 1-1.075-.528c-.171-.095-.183-.335-.03-.458a.283.283 0 0 1 .294-.038c3.522 1.594 7.329 1.595 10.81 0a.285.285 0 0 1 .297.038c.152.124.14.363-.032.458-.35.194-.71.371-1.079.53a.438.438 0 0 0-.224.607c.24.443.503.87.789 1.282a.42.42 0 0 0 .478.16 18.066 18.066 0 0 0 5.117-2.645.427.427 0 0 0 .173-.308c.403-4.712-.808-8.812-3.22-12.456ZM8.679 14.836c-1.087 0-1.978-1.015-1.978-2.25s.872-2.252 1.978-2.252c1.105 0 1.997 1.015 1.977 2.252.002 1.235-.872 2.25-1.977 2.25Zm7.309 0c-1.087 0-1.978-1.015-1.978-2.25s.872-2.252 1.978-2.252c1.105 0 1.997 1.015 1.978 2.252 0 1.235-.873 2.25-1.978 2.25Z" fill="#fff"/></svg>